{
	"asset":{
		"generator":"Khronos glTF Blender I/O v4.3.47",
		"version":"2.0"
	},
	"scene":0,
	"scenes":[
		{
			"name":"Scene",
			"nodes":[
				0,
				1,
				2,
				3,
				4,
				5,
				6,
				7,
				8,
				9
			]
		}
	],
	"nodes":[
		{
			"mesh":0,
			"name":"AXLES V2"
		},
		{
			"mesh":1,
			"name":"FWS R V2"
		},
		{
			"mesh":2,
			"name":"HUB FR",
			"translation":[
				-4.255995750427246,
				0,
				0
			]
		},
		{
			"mesh":3,
			"name":"HUB RR",
			"translation":[
				-7.739571571350098,
				0,
				0
			]
		},
		{
			"mesh":4,
			"name":"MAIN BODY CAR 5"
		},
		{
			"mesh":5,
			"name":"RWS R V2"
		},
		{
			"mesh":6,
			"name":"RWS R V2.001",
			"rotation":[
				1,
				0,
				0,
				0
			],
			"scale":[
				-1,
				-1,
				-1
			],
			"translation":[
				-0.6296966075897217,
				0,
				0
			]
		},
		{
			"mesh":7,
			"name":"HUB RR.001",
			"rotation":[
				1,
				0,
				0,
				0
			],
			"scale":[
				-1,
				-1,
				-1
			],
			"translation":[
				6.7780890464782715,
				0,
				0
			]
		},
		{
			"mesh":8,
			"name":"HUB FR.001",
			"rotation":[
				1,
				0,
				0,
				0
			],
			"scale":[
				-1,
				-1,
				-1
			],
			"translation":[
				3.816483497619629,
				0,
				0
			]
		},
		{
			"mesh":9,
			"name":"FWS R V2.001",
			"rotation":[
				1,
				0,
				0,
				0
			],
			"scale":[
				-1,
				-1,
				-1
			],
			"translation":[
				-0.6296966075897217,
				0,
				0
			]
		}
	],
	"meshes":[
		{
			"name":"AXLES V2",
			"primitives":[
				{
					"attributes":{
						"POSITION":0,
						"NORMAL":1
					},
					"indices":2
				}
			]
		},
		{
			"name":"FWS R V2",
			"primitives":[
				{
					"attributes":{
						"POSITION":3,
						"NORMAL":4
					},
					"indices":5
				}
			]
		},
		{
			"name":"HUB FR",
			"primitives":[
				{
					"attributes":{
						"POSITION":6,
						"NORMAL":7
					},
					"indices":8
				}
			]
		},
		{
			"name":"HUB RR",
			"primitives":[
				{
					"attributes":{
						"POSITION":9,
						"NORMAL":10
					},
					"indices":11
				}
			]
		},
		{
			"name":"MAIN BODY CAR 5",
			"primitives":[
				{
					"attributes":{
						"POSITION":12,
						"NORMAL":13
					},
					"indices":14
				}
			]
		},
		{
			"name":"RWS R V2",
			"primitives":[
				{
					"attributes":{
						"POSITION":15,
						"NORMAL":16
					},
					"indices":17
				}
			]
		},
		{
			"name":"RWS R V2.001",
			"primitives":[
				{
					"attributes":{
						"POSITION":18,
						"NORMAL":19
					},
					"indices":17
				}
			]
		},
		{
			"name":"HUB RR.001",
			"primitives":[
				{
					"attributes":{
						"POSITION":20,
						"NORMAL":21
					},
					"indices":11
				}
			]
		},
		{
			"name":"HUB FR.001",
			"primitives":[
				{
					"attributes":{
						"POSITION":22,
						"NORMAL":23
					},
					"indices":8
				}
			]
		},
		{
			"name":"FWS R V2.001",
			"primitives":[
				{
					"attributes":{
						"POSITION":24,
						"NORMAL":25
					},
					"indices":5
				}
			]
		}
	],
	"accessors":[
		{
			"bufferView":0,
			"componentType":5126,
			"count":844,
			"max":[
				5.52547025680542,
				2.6065256595611572,
				0
			],
			"min":[
				0,
				0,
				-12.5
			],
			"type":"VEC3"
		},
		{
			"bufferView":1,
			"componentType":5126,
			"count":844,
			"type":"VEC3"
		},
		{
			"bufferView":2,
			"componentType":5123,
			"count":1680,
			"type":"SCALAR"
		},
		{
			"bufferView":3,
			"componentType":5126,
			"count":46880,
			"max":[
				24.600000381469727,
				25.9995059967041,
				172
			],
			"min":[
				4,
				2.0004947185516357,
				148.00198364257812
			],
			"type":"VEC3"
		},
		{
			"bufferView":4,
			"componentType":5126,
			"count":46880,
			"type":"VEC3"
		},
		{
			"bufferView":5,
			"componentType":5123,
			"count":53562,
			"type":"SCALAR"
		},
		{
			"bufferView":6,
			"componentType":5126,
			"count":10728,
			"max":[
				32.099998474121094,
				25.998289108276367,
				172
			],
			"min":[
				27.600000381469727,
				2.00171160697937,
				148
			],
			"type":"VEC3"
		},
		{
			"bufferView":7,
			"componentType":5126,
			"count":10728,
			"type":"VEC3"
		},
		{
			"bufferView":8,
			"componentType":5123,
			"count":12906,
			"type":"SCALAR"
		},
		{
			"bufferView":9,
			"componentType":5126,
			"count":9438,
			"max":[
				32.099998474121094,
				25.998289108276367,
				42
			],
			"min":[
				27.600000381469727,
				2.00171160697937,
				18
			],
			"type":"VEC3"
		},
		{
			"bufferView":10,
			"componentType":5126,
			"count":9438,
			"type":"VEC3"
		},
		{
			"bufferView":11,
			"componentType":5123,
			"count":12906,
			"type":"SCALAR"
		},
		{
			"bufferView":12,
			"componentType":5126,
			"count":136621,
			"max":[
				30.375398635864258,
				41.78843688964844,
				176
			],
			"min":[
				-30.375398635864258,
				13,
				-1.5976854713349586e-13
			],
			"type":"VEC3"
		},
		{
			"bufferView":13,
			"componentType":5126,
			"count":136621,
			"type":"VEC3"
		},
		{
			"bufferView":14,
			"componentType":5125,
			"count":146832,
			"type":"SCALAR"
		},
		{
			"bufferView":15,
			"componentType":5126,
			"count":25630,
			"max":[
				20.600000381469727,
				26,
				42
			],
			"min":[
				6,
				2.000462055206299,
				18.000764846801758
			],
			"type":"VEC3"
		},
		{
			"bufferView":16,
			"componentType":5126,
			"count":25630,
			"type":"VEC3"
		},
		{
			"bufferView":17,
			"componentType":5123,
			"count":34110,
			"type":"SCALAR"
		},
		{
			"bufferView":18,
			"componentType":5126,
			"count":25630,
			"max":[
				20.600000381469727,
				26,
				42
			],
			"min":[
				6,
				2.000462055206299,
				18.000764846801758
			],
			"type":"VEC3"
		},
		{
			"bufferView":19,
			"componentType":5126,
			"count":25630,
			"type":"VEC3"
		},
		{
			"bufferView":20,
			"componentType":5126,
			"count":9438,
			"max":[
				32.099998474121094,
				25.998289108276367,
				42
			],
			"min":[
				27.600000381469727,
				2.00171160697937,
				18
			],
			"type":"VEC3"
		},
		{
			"bufferView":21,
			"componentType":5126,
			"count":9438,
			"type":"VEC3"
		},
		{
			"bufferView":22,
			"componentType":5126,
			"count":10728,
			"max":[
				32.099998474121094,
				25.998289108276367,
				172
			],
			"min":[
				27.600000381469727,
				2.00171160697937,
				148
			],
			"type":"VEC3"
		},
		{
			"bufferView":23,
			"componentType":5126,
			"count":10728,
			"type":"VEC3"
		},
		{
			"bufferView":24,
			"componentType":5126,
			"count":46880,
			"max":[
				24.600000381469727,
				25.9995059967041,
				172
			],
			"min":[
				4,
				2.0004947185516357,
				148.00198364257812
			],
			"type":"VEC3"
		},
		{
			"bufferView":25,
			"componentType":5126,
			"count":46880,
			"type":"VEC3"
		}
	],
	"bufferViews":[
		{
			"buffer":0,
			"byteLength":10128,
			"byteOffset":0,
			"target":34962
		},
		{
			"buffer":0,
			"byteLength":10128,
			"byteOffset":10128,
			"target":34962
		},
		{
			"buffer":0,
			"byteLength":3360,
			"byteOffset":20256,
			"target":34963
		},
		{
			"buffer":0,
			"byteLength":562560,
			"byteOffset":23616,
			"target":34962
		},
		{
			"buffer":0,
			"byteLength":562560,
			"byteOffset":586176,
			"target":34962
		},
		{
			"buffer":0,
			"byteLength":107124,
			"byteOffset":1148736,
			"target":34963
		},
		{
			"buffer":0,
			"byteLength":128736,
			"byteOffset":1255860,
			"target":34962
		},
		{
			"buffer":0,
			"byteLength":128736,
			"byteOffset":1384596,
			"target":34962
		},
		{
			"buffer":0,
			"byteLength":25812,
			"byteOffset":1513332,
			"target":34963
		},
		{
			"buffer":0,
			"byteLength":113256,
			"byteOffset":1539144,
			"target":34962
		},
		{
			"buffer":0,
			"byteLength":113256,
			"byteOffset":1652400,
			"target":34962
		},
		{
			"buffer":0,
			"byteLength":25812,
			"byteOffset":1765656,
			"target":34963
		},
		{
			"buffer":0,
			"byteLength":1639452,
			"byteOffset":1791468,
			"target":34962
		},
		{
			"buffer":0,
			"byteLength":1639452,
			"byteOffset":3430920,
			"target":34962
		},
		{
			"buffer":0,
			"byteLength":587328,
			"byteOffset":5070372,
			"target":34963
		},
		{
			"buffer":0,
			"byteLength":307560,
			"byteOffset":5657700,
			"target":34962
		},
		{
			"buffer":0,
			"byteLength":307560,
			"byteOffset":5965260,
			"target":34962
		},
		{
			"buffer":0,
			"byteLength":68220,
			"byteOffset":6272820,
			"target":34963
		},
		{
			"buffer":0,
			"byteLength":307560,
			"byteOffset":6341040,
			"target":34962
		},
		{
			"buffer":0,
			"byteLength":307560,
			"byteOffset":6648600,
			"target":34962
		},
		{
			"buffer":0,
			"byteLength":113256,
			"byteOffset":6956160,
			"target":34962
		},
		{
			"buffer":0,
			"byteLength":113256,
			"byteOffset":7069416,
			"target":34962
		},
		{
			"buffer":0,
			"byteLength":128736,
			"byteOffset":7182672,
			"target":34962
		},
		{
			"buffer":0,
			"byteLength":128736,
			"byteOffset":7311408,
			"target":34962
		},
		{
			"buffer":0,
			"byteLength":562560,
			"byteOffset":7440144,
			"target":34962
		},
		{
			"buffer":0,
			"byteLength":562560,
			"byteOffset":8002704,
			"target":34962
		}
	],
	"buffers":[
		{
			"byteLength":8565264,
			"uri":"CAR3.0.bin"
		}
	]
}
